stateDiagram-v2
	[*] --> Off: Reset (initialCounter=0)
	Off --> Red: Switch
	Red --> RedYellow: Switch
	RedYellow --> Green: Switch
	Green --> Yellow: Switch
	Yellow --> Red: Switch
note right of [*]
#{ counter } <= coalesce($initialCounter, inc(#counter))
end note

note left of Off
+Init
#{ counter = 0 }
end note
